<?xml version="1.0" standalone="no"?>
<!DOCTYPE svg PUBLIC "-//W3C//DTD SVG 20010904//EN"
 "http://www.w3.org/TR/2001/REC-SVG-20010904/DTD/svg10.dtd">
<svg version="1.0" xmlns="http://www.w3.org/2000/svg"
 width="2048.000000pt" height="2048.000000pt" viewBox="0 0 2048.000000 2048.000000"
 preserveAspectRatio="xMidYMid meet">

<g transform="translate(0.000000,2048.000000) scale(0.100000,-0.100000)"
fill="#000000" stroke="none">
<path d="M0 10240 l0 -10240 10240 0 10240 0 0 10240 0 10240 -10240 0 -10240
0 0 -10240z m10645 10200 c181 -26 406 -83 586 -147 108 -38 873 -416 3979
-1970 2115 -1058 3870 -1937 3900 -1952 30 -16 69 -36 85 -44 35 -16 189 -98
193 -102 1 -1 4 -11 6 -22 3 -13 -10 -36 -38 -67 -24 -25 -41 -46 -38 -46 2 0
-8 -16 -22 -35 -15 -19 -24 -35 -20 -35 5 0 -7 -16 -26 -35 -19 -19 -30 -35
-25 -35 5 0 -2 -11 -14 -24 -13 -14 -29 -22 -37 -19 -8 3 -14 0 -14 -6 0 -6 6
-11 13 -12 9 0 9 -2 -1 -6 -6 -2 -10 -8 -7 -12 2 -5 -6 -18 -19 -30 -18 -17
-26 -19 -31 -10 -6 8 -4 10 5 4 8 -5 11 -4 7 2 -4 6 0 16 8 23 8 7 12 17 8 23
-3 6 -1 7 5 3 8 -5 10 -1 6 9 -6 14 -8 13 -21 -5 -8 -11 -18 -18 -23 -15 -4 3
-7 -3 -5 -12 1 -10 -3 -24 -9 -32 -8 -11 -8 -13 1 -8 6 4 13 3 15 -1 3 -9 234
-129 615 -321 173 -87 184 -94 210 -139 l28 -47 0 -510 c0 -576 2 -560 -78
-613 l-41 -27 -1189 -3 c-928 -2 -1194 -5 -1206 -15 -11 -9 -13 -9 -8 0 5 8 1
11 -14 8 -26 -5 -35 -13 -25 -22 4 -4 11 -1 16 7 6 9 10 10 10 3 0 -7 -7 -16
-16 -21 -9 -5 -15 -12 -15 -15 1 -4 -1 -6 -3 -4 -2 1 -13 -6 -24 -16 -15 -14
-22 -15 -28 -6 -5 8 -3 10 6 4 9 -6 11 -4 5 5 -6 9 -4 11 5 5 9 -6 11 -4 5 5
-6 9 -4 11 5 5 9 -6 11 -4 5 5 -6 9 -4 11 5 5 9 -6 11 -4 5 5 -5 9 -4 11 3 6
8 -5 10 -1 5 10 -4 11 -8 13 -11 6 -2 -7 -8 -10 -13 -6 -5 3 -8 0 -7 -8 2 -7
-3 -12 -10 -10 -6 1 -11 -4 -10 -10 2 -7 -4 -13 -12 -12 -9 1 -17 -8 -18 -20
-1 -16 1 -18 8 -6 5 8 12 12 15 8 8 -8 -73 -83 -89 -83 -6 0 -21 -12 -33 -26
-13 -15 -31 -26 -40 -25 -10 0 -17 -5 -15 -12 1 -8 -2 -11 -7 -8 -5 4 -14 -1
-19 -10 -8 -15 -10 -15 -15 0 -5 11 -3 15 5 10 7 -5 8 -3 3 6 -6 9 -4 11 5 5
9 -6 11 -4 5 5 -5 8 -4 11 2 7 6 -4 25 6 42 22 17 16 31 24 31 18 0 -7 5 -4
11 5 5 10 17 15 27 12 15 -5 15 -4 2 6 -13 10 -12 11 3 6 12 -4 16 -2 11 6 -5
7 -3 8 6 3 9 -6 11 -4 5 5 -6 9 -4 11 5 5 9 -6 11 -4 5 5 -6 9 -4 11 5 5 9 -5
11 -4 6 4 -5 8 -15 6 -33 -9 -14 -11 -29 -17 -34 -14 -5 3 -8 0 -7 -8 2 -7 -3
-12 -10 -10 -7 1 -15 -5 -18 -13 -3 -8 -11 -12 -17 -8 -5 3 -7 2 -4 -3 8 -13
-23 -32 -46 -28 -9 1 -15 -1 -12 -5 4 -8 -41 -53 -49 -48 -3 1 -16 -9 -29 -22
-14 -12 -30 -20 -37 -16 -6 4 -9 1 -8 -7 2 -7 -2 -12 -9 -11 -7 2 -10 -3 -7
-11 4 -12 9 -11 25 5 11 11 25 17 31 13 7 -4 8 -3 4 5 -4 6 -3 10 2 9 5 -2 24
9 41 25 17 15 31 23 31 18 0 -6 -8 -15 -17 -20 -10 -6 -14 -11 -9 -11 5 0 3
-7 -4 -15 -7 -8 -16 -13 -20 -10 -4 3 -13 -2 -20 -10 -6 -7 -19 -11 -27 -8
-13 5 -15 2 -10 -11 4 -9 3 -15 -2 -12 -4 3 -18 -5 -31 -19 -12 -13 -28 -21
-35 -19 -7 3 -20 -4 -28 -16 -12 -18 -15 -19 -21 -5 -4 10 -2 14 6 9 7 -5 8
-3 3 6 -6 9 -4 11 5 5 8 -5 11 -4 7 2 -3 5 0 10 8 11 8 1 22 3 30 4 8 1 11 6
8 11 -4 6 -1 7 7 2 9 -6 11 -4 5 5 -6 9 -4 11 6 5 8 -5 10 -4 6 0 -10 12 -39
16 -32 5 7 -12 -25 -28 -47 -25 -10 2 -16 -2 -15 -8 1 -7 -4 -11 -11 -9 -8 1
-11 -1 -8 -6 2 -4 0 -14 -5 -22 -8 -12 -12 -12 -16 -2 -4 10 -8 8 -18 -5 -7
-10 -19 -18 -27 -18 -7 0 -13 -6 -13 -13 0 -15 -26 -33 -37 -26 -4 3 -5 -3 -1
-12 4 -11 8 -13 11 -6 2 7 8 12 13 12 6 0 7 -4 4 -10 -4 -7 259 -10 783 -10
434 0 958 -3 1165 -7 l377 -6 0 -137 c0 -209 -33 -369 -109 -535 -158 -340
-494 -603 -864 -673 -84 -16 -201 -17 -1397 -17 -1223 0 -1312 1 -1410 18
-396 70 -754 362 -900 736 -54 140 -72 238 -79 431 l-6 185 -855 0 -855 0 -6
-180 c-7 -190 -20 -271 -64 -395 -146 -407 -524 -721 -940 -782 -132 -19
-2621 -19 -2745 0 -378 59 -718 307 -888 647 -84 169 -112 293 -121 525 l-6
185 -855 0 -855 0 -6 -185 c-7 -192 -26 -295 -80 -433 -118 -301 -388 -564
-701 -680 -198 -74 -148 -72 -1608 -72 -1197 0 -1313 1 -1397 17 -101 20 -276
79 -302 103 -10 8 -22 15 -27 15 -29 0 -207 132 -294 218 -238 237 -350 515
-350 872 l0 137 377 6 c207 4 704 7 1105 7 550 0 729 3 726 12 -2 6 -12 12
-22 14 -10 1 -29 13 -42 25 -13 12 -24 19 -24 14 0 -5 -13 3 -28 18 -16 15
-31 25 -33 23 -3 -3 -24 12 -47 33 -23 21 -42 37 -42 34 0 -3 -18 10 -40 27
-22 17 -40 28 -40 23 -1 -4 -9 3 -20 15 -11 13 -26 25 -34 26 -9 1 -33 18 -55
38 -22 20 -42 34 -44 32 -1 -2 -25 17 -53 43 -27 26 -55 48 -63 49 -17 3 -61
44 -61 58 0 5 7 1 16 -10 15 -18 15 -18 4 3 l-10 22 -1147 1 c-1139 0 -1148 1
-1190 21 -53 26 -79 62 -93 126 -7 32 -10 218 -8 529 l3 479 27 47 c26 42 39
52 160 114 446 226 565 287 579 300 9 8 20 11 24 7 5 -5 4 -1 -3 8 -6 9 -8 20
-4 24 4 5 1 4 -7 0 -11 -6 -13 -4 -8 8 4 10 2 16 -6 14 -7 -1 -11 3 -10 8 1 6
-8 12 -20 12 -17 2 -19 0 -7 -7 11 -7 11 -10 2 -10 -10 0 -10 -3 0 -14 9 -10
15 -11 20 -2 5 6 8 7 9 1 0 -5 2 -18 4 -29 3 -15 -2 -13 -26 10 -16 15 -27 30
-24 33 3 2 -6 17 -21 32 -14 14 -27 33 -28 40 -1 8 -23 36 -49 63 -25 27 -44
53 -41 58 3 4 -1 8 -8 9 -10 0 -10 2 0 6 6 2 12 9 12 15 0 6 -6 8 -14 5 -14
-5 -63 38 -58 51 1 4 -4 15 -12 24 -13 14 -13 17 0 22 10 4 12 2 8 -6 -4 -7
-3 -8 4 -4 8 5 10 1 6 -11 -5 -15 -4 -16 5 -3 9 12 11 9 7 -13 -3 -18 -1 -25
6 -21 7 5 8 2 3 -6 -6 -9 -4 -11 5 -5 8 5 11 4 7 -1 -3 -6 4 -11 16 -11 20 -2
20 -1 4 8 -9 6 -15 15 -11 20 3 5 2 9 -3 8 -19 -3 -23 2 -13 21 8 16 8 20 -2
18 -7 -2 -12 2 -11 9 2 7 -7 10 -25 8 l-27 -4 25 12 c14 6 27 14 30 18 7 9
-235 -113 4140 2077 2772 1387 3952 1972 4040 2005 241 89 464 141 733 172
176 20 499 13 692 -15z m8495 -4564 c0 -2 -8 -10 -17 -17 -16 -13 -17 -12 -4
4 13 16 21 21 21 13z m-2277 -2146 c-12 -9 -20 -20 -18 -24 3 -3 2 -4 -2 -1
-3 3 -17 -4 -29 -16 -13 -12 -24 -16 -28 -10 -4 5 -2 12 4 16 6 4 7 11 4 17
-4 6 -2 8 3 5 6 -4 16 0 23 8 6 7 18 11 26 8 7 -3 17 2 20 11 4 9 9 14 13 11
3 -4 -4 -15 -16 -25z m-13843 -1799 c0 -163 2 -180 18 -185 9 -3 119 -5 245
-5 202 0 228 2 236 17 6 13 20 230 21 335 0 16 17 17 219 17 l219 0 7 -184 7
-184 248 0 248 0 6 137 c4 75 9 157 12 184 l6 47 213 0 c244 0 225 9 225 -101
0 -31 3 -104 6 -162 l7 -106 226 0 c124 0 236 0 249 0 l22 -1 0 -3455 0 -3455
-248 0 -249 0 -6 -137 c-4 -75 -7 -169 -7 -208 0 -40 -3 -87 -6 -104 l-6 -31
-213 0 -213 0 -6 63 c-3 34 -8 142 -12 240 l-6 177 -248 0 -248 0 -7 -240 -8
-240 -217 0 -218 0 -6 188 c-4 103 -9 211 -12 240 l-5 52 -247 -2 -247 -3 -3
-238 -2 -237 -224 0 -223 0 -7 231 c-3 127 -9 235 -12 240 -3 5 -115 9 -250 9
l-244 0 2 3456 3 3457 246 -1 246 -1 6 97 c4 53 7 136 7 185 l0 87 225 0 225
0 0 -179z m6474 132 c3 -27 8 -110 12 -185 l6 -136 226 -1 c125 0 235 0 244 0
9 -1 19 -9 21 -18 3 -10 5 36 6 102 1 66 4 157 8 203 l6 82 217 0 217 0 6 -82
c4 -46 7 -129 7 -185 l0 -101 249 0 249 0 6 136 c4 76 9 158 12 185 l6 47 213
0 213 0 5 -42 c4 -24 9 -107 13 -185 l6 -141 212 0 c116 -1 228 -1 249 -1 l37
-1 0 -3455 0 -3455 -249 0 -248 0 -7 -187 c-4 -104 -9 -212 -12 -240 l-6 -53
-213 0 -212 0 -7 37 c-3 21 -6 74 -6 119 0 44 -3 136 -7 202 l-6 122 -249 0
-248 0 0 -133 c0 -74 -3 -182 -7 -240 l-6 -107 -217 0 -217 0 -6 107 c-4 58
-8 176 -8 262 -1 86 -4 146 -6 134 l-4 -23 -243 0 -243 0 -6 -122 c-4 -66 -7
-158 -7 -202 0 -45 -3 -98 -6 -119 l-7 -37 -212 0 -213 0 -6 53 c-3 28 -8 136
-12 239 l-7 188 -248 0 -249 0 0 3455 0 3455 38 1 c20 0 132 0 248 1 l212 0 6
141 c4 78 9 161 13 185 l5 42 213 0 213 0 6 -47z m6480 0 c3 -27 8 -109 12
-184 l6 -137 248 0 248 0 7 184 7 184 219 0 c202 0 219 -1 219 -17 1 -106 15
-322 21 -335 8 -15 33 -16 246 -15 l237 2 7 25 c4 14 7 96 8 183 l1 157 225 0
225 0 0 -87 c0 -49 3 -132 7 -185 l6 -97 243 2 243 2 5 -29 c8 -37 7 -6822 -1
-6858 l-5 -28 -239 0 c-131 0 -240 -4 -243 -9 -3 -5 -9 -113 -12 -240 l-7
-231 -224 0 -223 0 0 194 c0 106 -3 214 -6 240 l-7 46 -243 0 -243 0 -5 -52
c-3 -29 -8 -137 -12 -241 l-6 -187 -218 0 -217 0 -8 240 -7 240 -248 0 -248 0
-6 -177 c-4 -98 -9 -206 -12 -240 l-6 -63 -213 0 -212 0 -7 31 c-3 17 -6 64
-6 104 0 39 -3 133 -7 208 l-6 137 -249 0 -248 0 0 3455 0 3455 23 1 c12 0
124 0 248 0 l226 0 7 106 c3 58 6 131 6 162 0 110 -19 101 225 101 l213 0 6
-47z m-10819 -7977 c321 -60 611 -251 790 -520 71 -108 119 -217 157 -356 28
-102 32 -135 37 -295 l6 -180 835 -3 c459 -1 845 0 856 3 20 5 22 12 27 187 6
197 18 264 67 398 122 333 409 612 741 720 201 66 140 64 1569 64 1180 0 1303
-2 1390 -18 416 -75 770 -366 915 -751 53 -140 66 -218 72 -413 5 -175 6 -182
27 -187 11 -3 397 -4 856 -3 l835 3 6 185 c5 123 12 205 23 245 41 147 58 195
100 277 173 339 493 577 866 644 87 16 210 18 1395 18 1194 0 1307 -2 1389
-18 139 -27 243 -64 351 -124 190 -105 330 -232 441 -400 133 -200 183 -370
193 -652 l6 -175 67 -7 c234 -23 443 -167 543 -373 69 -141 69 -147 70 -584
l0 -394 100 -17 c158 -28 256 -74 362 -174 114 -106 176 -216 207 -368 13 -61
16 -142 16 -378 l0 -300 -10230 0 -10230 0 0 300 c0 236 3 317 16 378 31 152
93 262 207 368 106 100 204 146 362 174 l100 17 -3 319 c-2 175 1 364 6 419
32 327 279 577 607 612 l70 8 6 175 c7 207 29 315 92 465 160 376 527 660 923
714 118 16 87 16 1424 15 1118 -1 1254 -3 1335 -18z"/>
<path d="M19357 16204 c-10 -13 -18 -27 -18 -31 0 -5 -9 -17 -19 -28 -10 -11
-20 -24 -20 -30 -1 -5 -6 -9 -11 -7 -5 1 -8 -4 -6 -10 1 -7 -3 -12 -9 -11 -6
1 -11 -3 -12 -10 -4 -44 -25 -73 -43 -61 -4 2 -6 -7 -3 -22 3 -14 1 -23 -4
-20 -12 7 -45 -28 -35 -37 3 -4 0 -7 -8 -7 -12 0 -12 -2 1 -10 15 -10 54 16
45 30 -3 4 8 20 23 35 15 15 27 30 27 34 0 3 10 21 23 39 13 17 21 32 18 32
-3 0 14 21 38 46 30 31 43 53 41 66 -6 29 -8 29 -28 2z m19 -6 c-2 -17 -48
-78 -58 -78 -4 0 -1 8 7 18 8 9 14 20 13 23 -3 6 31 49 38 49 1 0 1 -6 0 -12z
m-92 -133 c-9 -14 -18 -25 -21 -25 -5 0 5 18 20 38 17 22 18 13 1 -13z m-24
-50 c0 -2 -10 -9 -22 -15 -22 -11 -22 -10 -4 4 21 17 26 19 26 11z m-54 -60
c-1 -8 -7 -20 -13 -26 -13 -13 -13 7 0 29 11 16 16 15 13 -3z"/>
<path d="M1099 16064 c0 -5 -2 -17 -4 -26 -2 -9 17 -38 43 -65 26 -26 47 -54
49 -61 3 -22 34 -51 48 -46 10 4 9 10 -6 25 -11 11 -17 24 -14 30 4 5 1 8 -7
7 -7 -2 -12 3 -10 10 1 6 -2 11 -7 10 -5 -2 -10 2 -11 7 0 6 -11 20 -23 33
-12 13 -20 24 -17 26 3 1 -5 14 -17 30 -13 16 -23 25 -24 20z m36 -54 c-2 -4
5 -17 16 -28 11 -12 16 -22 11 -22 -10 0 -56 60 -58 78 -2 10 3 9 17 -3 10
-10 17 -21 14 -25z m80 -116 c9 -15 12 -23 6 -20 -11 7 -35 46 -28 46 3 0 12
-12 22 -26z"/>
<path d="M19139 15853 c-13 -16 -12 -17 4 -4 9 7 17 15 17 17 0 8 -8 3 -21
-13z"/>
<path d="M2975 14121 c-3 -6 4 -15 15 -21 11 -6 20 -8 20 -5 0 3 23 -16 51
-44 28 -28 54 -49 58 -48 3 1 23 -14 44 -32 21 -19 45 -36 54 -37 10 -2 25
-13 35 -26 10 -13 18 -19 18 -15 0 5 18 -6 40 -23 22 -17 40 -29 40 -25 0 3
19 -12 42 -34 22 -22 44 -38 48 -36 4 3 19 -7 34 -22 14 -14 26 -22 26 -18 0
4 14 -5 31 -19 17 -14 35 -24 39 -21 5 3 15 -4 23 -16 11 -15 16 -17 20 -7 4
10 6 10 6 1 1 -7 6 -13 13 -13 6 0 4 7 -5 18 -10 10 -15 21 -12 24 3 3 -5 5
-17 4 -13 0 -22 4 -21 10 1 6 -3 11 -10 12 -44 4 -73 25 -61 43 2 4 -7 6 -22
3 -14 -3 -23 -1 -20 4 3 5 -3 17 -14 27 -11 10 -20 14 -20 10 0 -5 -5 -4 -11
2 -6 6 -18 9 -25 6 -17 -6 -19 13 -1 21 6 3 3 4 -8 3 -12 -1 -19 3 -17 11 1 6
-4 11 -10 10 -7 -2 -12 2 -11 9 2 7 -7 10 -23 7 -18 -3 -23 -1 -18 7 4 7 3 9
-4 5 -11 -7 -35 27 -26 37 3 3 -2 4 -13 3 -24 -4 -55 12 -48 25 4 5 1 8 -7 7
-7 -2 -12 2 -11 9 2 7 -6 10 -18 8 -15 -3 -19 0 -15 10 3 9 0 12 -10 8 -9 -3
-14 0 -12 8 2 7 -4 14 -12 14 -8 1 -14 7 -12 14 1 7 -2 10 -7 7 -5 -4 -17 4
-25 16 -9 12 -19 18 -23 14 -4 -4 -1 -11 7 -16 10 -6 11 -10 3 -10 -15 0 -35
35 -25 45 4 3 0 5 -8 3 -8 -2 -14 3 -12 10 1 8 -2 11 -7 8 -5 -4 -12 -2 -16 4
-8 13 -22 13 -30 1z m30 -11 c3 -6 -1 -7 -9 -4 -18 7 -21 14 -7 14 6 0 13 -4
16 -10z m100 -80 c10 -11 16 -20 13 -20 -3 0 -13 9 -23 20 -10 11 -16 20 -13
20 3 0 13 -9 23 -20z m90 -70 c10 -11 16 -20 13 -20 -3 0 -13 9 -23 20 -10 11
-16 20 -13 20 3 0 13 -9 23 -20z m73 -55 c-3 -3 -9 2 -12 12 -6 14 -5 15 5 6
7 -7 10 -15 7 -18z m73 -42 c13 -16 12 -17 -3 -4 -10 7 -18 15 -18 17 0 8 8 3
21 -13z m91 -58 c3 3 10 -1 16 -8 9 -10 8 -14 -3 -14 -8 0 -23 10 -32 21 -14
15 -14 18 -2 8 9 -6 18 -10 21 -7z m66 -60 c-3 -3 -9 2 -12 12 -6 14 -5 15 5
6 7 -7 10 -15 7 -18z m72 -41 c0 -2 -9 0 -20 6 -11 6 -20 13 -20 16 0 2 9 0
20 -6 11 -6 20 -13 20 -16z"/>
<path d="M17189 13963 c-13 -16 -12 -17 4 -4 9 7 17 15 17 17 0 8 -8 3 -21
-13z"/>
<path d="M16809 13703 l-24 -28 28 24 c25 23 32 31 24 31 -2 0 -14 -12 -28
-27z"/>
</g>
</svg>
